<?xml version="1.0" encoding="UTF-8" standalone="no"?><svg xmlns="http://www.w3.org/2000/svg" xmlns:xlink="http://www.w3.org/1999/xlink" contentScriptType="application/ecmascript" contentStyleType="text/css" height="356px" preserveAspectRatio="none" style="width:576px;height:356px;" version="1.1" viewBox="0 0 576 356" width="576px" zoomAndPan="magnify"><defs><filter height="300%" id="f16z1bqinmoe65" width="300%" x="-1" y="-1"><feGaussianBlur result="blurOut" stdDeviation="2.0"/><feColorMatrix in="blurOut" result="blurOut2" type="matrix" values="0 0 0 0 0 0 0 0 0 0 0 0 0 0 0 0 0 0 .4 0"/><feOffset dx="4.0" dy="4.0" in="blurOut2" result="blurOut3"/><feBlend in="SourceGraphic" in2="blurOut3" mode="normal"/></filter></defs><g><!--class Bremse--><rect fill="#FEFECE" filter="url(#f16z1bqinmoe65)" height="164.5957" id="Bremse" style="stroke: #A80036; stroke-width: 1.5;" width="284" x="143.5" y="8"/><ellipse cx="259.75" cy="24" fill="#A9DCDF" rx="11" ry="11" style="stroke: #A80036; stroke-width: 1.0;"/><path d="M259.8633,19.3481 L258.7095,24.4199 L261.0254,24.4199 Z M258.3691,17.1069 L261.3657,17.1069 L264.7109,29.5 L262.2622,29.5 L261.4985,26.437 L258.2197,26.437 L257.4727,29.5 L255.0239,29.5 Z "/><text fill="#000000" font-family="sans-serif" font-size="12" font-style="italic" lengthAdjust="spacingAndGlyphs" textLength="43" x="280.25" y="28.5352">Bremse</text><line style="stroke: #A80036; stroke-width: 1.5;" x1="144.5" x2="426.5" y1="40" y2="40"/><rect fill="none" height="6" style="stroke: #C82930; stroke-width: 1.0;" width="6" x="151.5" y="48.9775"/><text fill="#000000" font-family="sans-serif" font-size="11" lengthAdjust="spacingAndGlyphs" textLength="89" x="163.5" y="54.6348">hersteller: String</text><rect fill="none" height="6" style="stroke: #C82930; stroke-width: 1.0;" width="6" x="151.5" y="61.9326"/><text fill="#000000" font-family="sans-serif" font-size="11" lengthAdjust="spacingAndGlyphs" textLength="116" x="163.5" y="67.5898">seriennummer: String</text><line style="stroke: #A80036; stroke-width: 1.5;" x1="144.5" x2="426.5" y1="73.9102" y2="73.9102"/><ellipse cx="154.5" cy="85.8877" fill="#84BE84" rx="3" ry="3" style="stroke: #038048; stroke-width: 1.0;"/><text fill="#000000" font-family="sans-serif" font-size="11" lengthAdjust="spacingAndGlyphs" textLength="258" x="163.5" y="88.5449">Bremse(hersteller: String, seriennummer: String)</text><text fill="#000000" font-family="sans-serif" font-size="11" lengthAdjust="spacingAndGlyphs" textLength="0" x="166.5" y="101.5"/><ellipse cx="154.5" cy="111.7979" fill="#84BE84" rx="3" ry="3" style="stroke: #038048; stroke-width: 1.0;"/><text fill="#000000" font-family="sans-serif" font-size="11" lengthAdjust="spacingAndGlyphs" textLength="115" x="163.5" y="114.4551">getHersteller(): String</text><ellipse cx="154.5" cy="124.7529" fill="#84BE84" rx="3" ry="3" style="stroke: #038048; stroke-width: 1.0;"/><text fill="#000000" font-family="sans-serif" font-size="11" lengthAdjust="spacingAndGlyphs" textLength="141" x="163.5" y="127.4102">getSeriennummer(): String</text><text fill="#000000" font-family="sans-serif" font-size="11" lengthAdjust="spacingAndGlyphs" textLength="0" x="166.5" y="140.3652"/><ellipse cx="154.5" cy="150.6631" fill="#84BE84" rx="3" ry="3" style="stroke: #038048; stroke-width: 1.0;"/><text fill="#000000" font-family="sans-serif" font-size="11" lengthAdjust="spacingAndGlyphs" textLength="102" x="163.5" y="153.3203">abstract bremsen()</text><ellipse cx="154.5" cy="163.6182" fill="#84BE84" rx="3" ry="3" style="stroke: #038048; stroke-width: 1.0;"/><text fill="#000000" font-family="sans-serif" font-size="11" lengthAdjust="spacingAndGlyphs" textLength="184" x="163.5" y="166.2754">abstract brauchtService(): boolean</text><!--class Cantileverbremse--><rect fill="#FEFECE" filter="url(#f16z1bqinmoe65)" height="112.7754" id="Cantileverbremse" style="stroke: #A80036; stroke-width: 1.5;" width="163" x="6" y="233"/><ellipse cx="34.5" cy="249" fill="#ADD1B2" rx="11" ry="11" style="stroke: #A80036; stroke-width: 1.0;"/><path d="M37.4731,254.6431 Q36.8921,254.9419 36.2529,255.0913 Q35.6138,255.2407 34.9082,255.2407 Q32.4014,255.2407 31.0815,253.5889 Q29.7617,251.937 29.7617,248.8159 Q29.7617,245.6865 31.0815,244.0347 Q32.4014,242.3828 34.9082,242.3828 Q35.6138,242.3828 36.2612,242.5322 Q36.9087,242.6816 37.4731,242.9805 L37.4731,245.7031 Q36.8423,245.1221 36.2488,244.8523 Q35.6553,244.5825 35.0244,244.5825 Q33.6797,244.5825 32.9949,245.6492 Q32.3101,246.7158 32.3101,248.8159 Q32.3101,250.9077 32.9949,251.9744 Q33.6797,253.041 35.0244,253.041 Q35.6553,253.041 36.2488,252.7712 Q36.8423,252.5015 37.4731,251.9204 Z "/><text fill="#000000" font-family="sans-serif" font-size="12" lengthAdjust="spacingAndGlyphs" textLength="101" x="51.5" y="253.5352">Cantileverbremse</text><line style="stroke: #A80036; stroke-width: 1.5;" x1="7" x2="168" y1="265" y2="265"/><rect fill="none" height="6" style="stroke: #C82930; stroke-width: 1.0;" width="6" x="14" y="273.9775"/><text fill="#000000" font-family="sans-serif" font-size="11" lengthAdjust="spacingAndGlyphs" textLength="77" x="26" y="279.6348">belagLinks: int</text><rect fill="none" height="6" style="stroke: #C82930; stroke-width: 1.0;" width="6" x="14" y="286.9326"/><text fill="#000000" font-family="sans-serif" font-size="11" lengthAdjust="spacingAndGlyphs" textLength="85" x="26" y="292.5898">belagRechts: int</text><line style="stroke: #A80036; stroke-width: 1.5;" x1="7" x2="168" y1="298.9102" y2="298.9102"/><ellipse cx="17" cy="310.8877" fill="#84BE84" rx="3" ry="3" style="stroke: #038048; stroke-width: 1.0;"/><text fill="#000000" font-family="sans-serif" font-size="11" lengthAdjust="spacingAndGlyphs" textLength="55" x="26" y="313.5449">bremsen()</text><ellipse cx="17" cy="323.8428" fill="#84BE84" rx="3" ry="3" style="stroke: #038048; stroke-width: 1.0;"/><text fill="#000000" font-family="sans-serif" font-size="11" lengthAdjust="spacingAndGlyphs" textLength="137" x="26" y="326.5">brauchtService(): boolean</text><ellipse cx="17" cy="336.7979" fill="#84BE84" rx="3" ry="3" style="stroke: #038048; stroke-width: 1.0;"/><text fill="#000000" font-family="sans-serif" font-size="11" lengthAdjust="spacingAndGlyphs" textLength="89" x="26" y="339.4551">toString(): String</text><!--class Scheibenbrense--><rect fill="#FEFECE" filter="url(#f16z1bqinmoe65)" height="112.7754" id="Scheibenbrense" style="stroke: #A80036; stroke-width: 1.5;" width="163" x="204" y="233"/><ellipse cx="237" cy="249" fill="#ADD1B2" rx="11" ry="11" style="stroke: #A80036; stroke-width: 1.0;"/><path d="M239.9731,254.6431 Q239.3921,254.9419 238.7529,255.0913 Q238.1138,255.2407 237.4082,255.2407 Q234.9014,255.2407 233.5815,253.5889 Q232.2617,251.937 232.2617,248.8159 Q232.2617,245.6865 233.5815,244.0347 Q234.9014,242.3828 237.4082,242.3828 Q238.1138,242.3828 238.7612,242.5322 Q239.4087,242.6816 239.9731,242.9805 L239.9731,245.7031 Q239.3423,245.1221 238.7488,244.8523 Q238.1553,244.5825 237.5244,244.5825 Q236.1797,244.5825 235.4949,245.6492 Q234.8101,246.7158 234.8101,248.8159 Q234.8101,250.9077 235.4949,251.9744 Q236.1797,253.041 237.5244,253.041 Q238.1553,253.041 238.7488,252.7712 Q239.3423,252.5015 239.9731,251.9204 Z "/><text fill="#000000" font-family="sans-serif" font-size="12" lengthAdjust="spacingAndGlyphs" textLength="91" x="255" y="253.5352">Scheibenbrense</text><line style="stroke: #A80036; stroke-width: 1.5;" x1="205" x2="366" y1="265" y2="265"/><rect fill="none" height="6" style="stroke: #C82930; stroke-width: 1.0;" width="6" x="212" y="273.9775"/><text fill="#000000" font-family="sans-serif" font-size="11" lengthAdjust="spacingAndGlyphs" textLength="74" x="224" y="279.6348">riefentiefe: int</text><rect fill="none" height="6" style="stroke: #C82930; stroke-width: 1.0;" width="6" x="212" y="286.9326"/><text fill="#000000" font-family="sans-serif" font-size="11" lengthAdjust="spacingAndGlyphs" textLength="49" x="224" y="292.5898">belag: int</text><line style="stroke: #A80036; stroke-width: 1.5;" x1="205" x2="366" y1="298.9102" y2="298.9102"/><ellipse cx="215" cy="310.8877" fill="#84BE84" rx="3" ry="3" style="stroke: #038048; stroke-width: 1.0;"/><text fill="#000000" font-family="sans-serif" font-size="11" lengthAdjust="spacingAndGlyphs" textLength="55" x="224" y="313.5449">bremsen()</text><ellipse cx="215" cy="323.8428" fill="#84BE84" rx="3" ry="3" style="stroke: #038048; stroke-width: 1.0;"/><text fill="#000000" font-family="sans-serif" font-size="11" lengthAdjust="spacingAndGlyphs" textLength="137" x="224" y="326.5">brauchtService(): boolean</text><ellipse cx="215" cy="336.7979" fill="#84BE84" rx="3" ry="3" style="stroke: #038048; stroke-width: 1.0;"/><text fill="#000000" font-family="sans-serif" font-size="11" lengthAdjust="spacingAndGlyphs" textLength="89" x="224" y="339.4551">toString(): String</text><!--class Trommelbremse--><rect fill="#FEFECE" filter="url(#f16z1bqinmoe65)" height="99.8203" id="Trommelbremse" style="stroke: #A80036; stroke-width: 1.5;" width="163" x="402" y="239.5"/><ellipse cx="432.75" cy="255.5" fill="#ADD1B2" rx="11" ry="11" style="stroke: #A80036; stroke-width: 1.0;"/><path d="M435.7231,261.1431 Q435.1421,261.4419 434.5029,261.5913 Q433.8638,261.7407 433.1582,261.7407 Q430.6514,261.7407 429.3315,260.0889 Q428.0117,258.437 428.0117,255.3159 Q428.0117,252.1865 429.3315,250.5347 Q430.6514,248.8828 433.1582,248.8828 Q433.8638,248.8828 434.5112,249.0322 Q435.1587,249.1816 435.7231,249.4805 L435.7231,252.2031 Q435.0923,251.6221 434.4988,251.3523 Q433.9053,251.0825 433.2744,251.0825 Q431.9297,251.0825 431.2449,252.1492 Q430.5601,253.2158 430.5601,255.3159 Q430.5601,257.4077 431.2449,258.4744 Q431.9297,259.541 433.2744,259.541 Q433.9053,259.541 434.4988,259.2712 Q435.0923,259.0015 435.7231,258.4204 Z "/><text fill="#000000" font-family="sans-serif" font-size="12" lengthAdjust="spacingAndGlyphs" textLength="96" x="450.25" y="260.0352">Trommelbremse</text><line style="stroke: #A80036; stroke-width: 1.5;" x1="403" x2="564" y1="271.5" y2="271.5"/><rect fill="none" height="6" style="stroke: #C82930; stroke-width: 1.0;" width="6" x="410" y="280.4775"/><text fill="#000000" font-family="sans-serif" font-size="11" lengthAdjust="spacingAndGlyphs" textLength="49" x="422" y="286.1348">belag: int</text><line style="stroke: #A80036; stroke-width: 1.5;" x1="403" x2="564" y1="292.4551" y2="292.4551"/><ellipse cx="413" cy="304.4326" fill="#84BE84" rx="3" ry="3" style="stroke: #038048; stroke-width: 1.0;"/><text fill="#000000" font-family="sans-serif" font-size="11" lengthAdjust="spacingAndGlyphs" textLength="55" x="422" y="307.0898">bremsen()</text><ellipse cx="413" cy="317.3877" fill="#84BE84" rx="3" ry="3" style="stroke: #038048; stroke-width: 1.0;"/><text fill="#000000" font-family="sans-serif" font-size="11" lengthAdjust="spacingAndGlyphs" textLength="137" x="422" y="320.0449">brauchtService(): boolean</text><ellipse cx="413" cy="330.3428" fill="#84BE84" rx="3" ry="3" style="stroke: #038048; stroke-width: 1.0;"/><text fill="#000000" font-family="sans-serif" font-size="11" lengthAdjust="spacingAndGlyphs" textLength="89" x="422" y="333">toString(): String</text><!--link Bremse to Cantileverbremse--><path d="M189.0944,187.3925 C173.6069,202.9582 158.0347,218.6091 143.8953,232.8199 " fill="none" id="Bremse-Cantileverbremse" style="stroke: #A80036; stroke-width: 1.0;"/><polygon fill="none" points="184.1816,182.4056,203.2503,173.1651,194.106,192.2801,184.1816,182.4056" style="stroke: #A80036; stroke-width: 1.0;"/><!--link Bremse to Scheibenbrense--><path d="M285.5,193.5879 C285.5,207.0851 285.5,220.4942 285.5,232.8199 " fill="none" id="Bremse-Scheibenbrense" style="stroke: #A80036; stroke-width: 1.0;"/><polygon fill="none" points="278.5001,193.1651,285.5,173.1651,292.5001,193.1651,278.5001,193.1651" style="stroke: #A80036; stroke-width: 1.0;"/><!--link Bremse to Trommelbremse--><path d="M381.9812,187.4685 C399.811,205.3883 417.7498,223.4177 433.4823,239.2297 " fill="none" id="Bremse-Trommelbremse" style="stroke: #A80036; stroke-width: 1.0;"/><polygon fill="none" points="376.894,192.2801,367.7497,173.1651,386.8184,182.4056,376.894,192.2801" style="stroke: #A80036; stroke-width: 1.0;"/><!--
@startuml bremsen

abstract class Bremse {
	-hersteller: String
	-seriennummer: String
	+Bremse(hersteller: String, seriennummer: String)

	+getHersteller(): String
	+getSeriennummer(): String

	+abstract bremsen()
	+abstract brauchtService(): boolean
}

class Cantileverbremse extends Bremse {
	-belagLinks: int
	-belagRechts: int

	+bremsen()
	+brauchtService(): boolean
	+toString(): String
}

class Scheibenbrense extends Bremse {
	-riefentiefe: int
	-belag: int

	+bremsen()
	+brauchtService(): boolean
	+toString(): String
}

class Trommelbremse extends Bremse {
	-belag: int

	+bremsen()
	+brauchtService(): boolean
	+toString(): String
}

@enduml

PlantUML version 1.2018.07(Mon Jun 11 19:29:06 CEST 2018)
(GPL source distribution)
Java Runtime: Java(TM) SE Runtime Environment
JVM: Java HotSpot(TM) 64-Bit Server VM
Java Version: 1.8.0_144-b01
Operating System: Mac OS X
OS Version: 10.13.4
Default Encoding: UTF-8
Language: en
Country: US
--></g></svg>