<?xml version="1.0" encoding="UTF-8" standalone="no"?><svg xmlns="http://www.w3.org/2000/svg" xmlns:xlink="http://www.w3.org/1999/xlink" contentScriptType="application/ecmascript" contentStyleType="text/css" height="304px" preserveAspectRatio="none" style="width:1176px;height:304px;" version="1.1" viewBox="0 0 1176 304" width="1176px" zoomAndPan="magnify"><defs><filter height="300%" id="f1p2kvmyudp1jd" width="300%" x="-1" y="-1"><feGaussianBlur result="blurOut" stdDeviation="2.0"/><feColorMatrix in="blurOut" result="blurOut2" type="matrix" values="0 0 0 0 0 0 0 0 0 0 0 0 0 0 0 0 0 0 .4 0"/><feOffset dx="4.0" dy="4.0" in="blurOut2" result="blurOut3"/><feBlend in="SourceGraphic" in2="blurOut3" mode="normal"/></filter></defs><g><!--class Volumen--><rect fill="#FEFECE" filter="url(#f1p2kvmyudp1jd)" height="112.7754" id="Volumen" style="stroke: #A80036; stroke-width: 1.5;" width="195" x="515.5" y="8"/><ellipse cx="583.75" cy="24" fill="#A9DCDF" rx="11" ry="11" style="stroke: #A80036; stroke-width: 1.0;"/><path d="M583.8633,19.3481 L582.7095,24.4199 L585.0254,24.4199 Z M582.3691,17.1069 L585.3657,17.1069 L588.7109,29.5 L586.2622,29.5 L585.4985,26.437 L582.2197,26.437 L581.4727,29.5 L579.0239,29.5 Z "/><text fill="#000000" font-family="sans-serif" font-size="12" font-style="italic" lengthAdjust="spacingAndGlyphs" textLength="50" x="604.25" y="28.5352">Volumen</text><line style="stroke: #A80036; stroke-width: 1.5;" x1="516.5" x2="709.5" y1="40" y2="40"/><rect fill="none" height="6" style="stroke: #C82930; stroke-width: 1.0;" width="6" x="523.5" y="48.9775"/><text fill="#000000" font-family="sans-serif" font-size="11" lengthAdjust="spacingAndGlyphs" textLength="50" x="535.5" y="54.6348">h: double</text><line style="stroke: #A80036; stroke-width: 1.5;" x1="516.5" x2="709.5" y1="60.9551" y2="60.9551"/><ellipse cx="526.5" cy="72.9326" fill="#84BE84" rx="3" ry="3" style="stroke: #038048; stroke-width: 1.0;"/><text fill="#000000" font-family="sans-serif" font-size="11" lengthAdjust="spacingAndGlyphs" textLength="105" x="535.5" y="75.5898">Volumen(h: double)</text><text fill="#000000" font-family="sans-serif" font-size="11" lengthAdjust="spacingAndGlyphs" textLength="0" x="538.5" y="88.5449"/><ellipse cx="526.5" cy="98.8428" fill="#84BE84" rx="3" ry="3" style="stroke: #038048; stroke-width: 1.0;"/><text fill="#000000" font-family="sans-serif" font-size="11" lengthAdjust="spacingAndGlyphs" textLength="169" x="535.5" y="101.5">abstract grundflaeche(): double</text><ellipse cx="526.5" cy="111.7979" fill="#84BE84" rx="3" ry="3" style="stroke: #038048; stroke-width: 1.0;"/><text fill="#000000" font-family="sans-serif" font-size="11" lengthAdjust="spacingAndGlyphs" textLength="94" x="535.5" y="114.4551">double volumen()</text><!--class DreiecksPrisma--><rect fill="#FEFECE" filter="url(#f1p2kvmyudp1jd)" height="112.7754" id="DreiecksPrisma" style="stroke: #A80036; stroke-width: 1.5;" width="332" x="6" y="181"/><ellipse cx="123.25" cy="197" fill="#ADD1B2" rx="11" ry="11" style="stroke: #A80036; stroke-width: 1.0;"/><path d="M126.2231,202.6431 Q125.6421,202.9419 125.0029,203.0913 Q124.3638,203.2407 123.6582,203.2407 Q121.1514,203.2407 119.8315,201.5889 Q118.5117,199.937 118.5117,196.8159 Q118.5117,193.6865 119.8315,192.0347 Q121.1514,190.3828 123.6582,190.3828 Q124.3638,190.3828 125.0112,190.5322 Q125.6587,190.6816 126.2231,190.9805 L126.2231,193.7031 Q125.5923,193.1221 124.9988,192.8523 Q124.4053,192.5825 123.7744,192.5825 Q122.4297,192.5825 121.7449,193.6492 Q121.0601,194.7158 121.0601,196.8159 Q121.0601,198.9077 121.7449,199.9744 Q122.4297,201.041 123.7744,201.041 Q124.4053,201.041 124.9988,200.7712 Q125.5923,200.5015 126.2231,199.9204 Z "/><text fill="#000000" font-family="sans-serif" font-size="12" lengthAdjust="spacingAndGlyphs" textLength="89" x="143.75" y="201.5352">DreiecksPrisma</text><line style="stroke: #A80036; stroke-width: 1.5;" x1="7" x2="337" y1="213" y2="213"/><rect fill="none" height="6" style="stroke: #C82930; stroke-width: 1.0;" width="6" x="14" y="221.9775"/><text fill="#000000" font-family="sans-serif" font-size="11" lengthAdjust="spacingAndGlyphs" textLength="49" x="26" y="227.6348">a: double</text><rect fill="none" height="6" style="stroke: #C82930; stroke-width: 1.0;" width="6" x="14" y="234.9326"/><text fill="#000000" font-family="sans-serif" font-size="11" lengthAdjust="spacingAndGlyphs" textLength="50" x="26" y="240.5898">b: double</text><rect fill="none" height="6" style="stroke: #C82930; stroke-width: 1.0;" width="6" x="14" y="247.8877"/><text fill="#000000" font-family="sans-serif" font-size="11" lengthAdjust="spacingAndGlyphs" textLength="49" x="26" y="253.5449">c: double</text><line style="stroke: #A80036; stroke-width: 1.5;" x1="7" x2="337" y1="259.8652" y2="259.8652"/><ellipse cx="17" cy="271.8428" fill="#84BE84" rx="3" ry="3" style="stroke: #038048; stroke-width: 1.0;"/><text fill="#000000" font-family="sans-serif" font-size="11" lengthAdjust="spacingAndGlyphs" textLength="306" x="26" y="274.5">DreiecksPrisma(a: double, b: double, c: double, h: double)</text><ellipse cx="17" cy="284.7979" fill="#84BE84" rx="3" ry="3" style="stroke: #038048; stroke-width: 1.0;"/><text fill="#000000" font-family="sans-serif" font-size="11" lengthAdjust="spacingAndGlyphs" textLength="122" x="26" y="287.4551">grundflaeche(): double</text><!--class Quader--><rect fill="#FEFECE" filter="url(#f1p2kvmyudp1jd)" height="99.8203" id="Quader" style="stroke: #A80036; stroke-width: 1.5;" width="235" x="373.5" y="187.5"/><ellipse cx="465.25" cy="203.5" fill="#ADD1B2" rx="11" ry="11" style="stroke: #A80036; stroke-width: 1.0;"/><path d="M468.2231,209.1431 Q467.6421,209.4419 467.0029,209.5913 Q466.3638,209.7407 465.6582,209.7407 Q463.1514,209.7407 461.8315,208.0889 Q460.5117,206.437 460.5117,203.3159 Q460.5117,200.1865 461.8315,198.5347 Q463.1514,196.8828 465.6582,196.8828 Q466.3638,196.8828 467.0112,197.0322 Q467.6587,197.1816 468.2231,197.4805 L468.2231,200.2031 Q467.5923,199.6221 466.9988,199.3523 Q466.4053,199.0825 465.7744,199.0825 Q464.4297,199.0825 463.7449,200.1492 Q463.0601,201.2158 463.0601,203.3159 Q463.0601,205.4077 463.7449,206.4744 Q464.4297,207.541 465.7744,207.541 Q466.4053,207.541 466.9988,207.2712 Q467.5923,207.0015 468.2231,206.4204 Z "/><text fill="#000000" font-family="sans-serif" font-size="12" lengthAdjust="spacingAndGlyphs" textLength="43" x="485.75" y="208.0352">Quader</text><line style="stroke: #A80036; stroke-width: 1.5;" x1="374.5" x2="607.5" y1="219.5" y2="219.5"/><rect fill="none" height="6" style="stroke: #C82930; stroke-width: 1.0;" width="6" x="381.5" y="228.4775"/><text fill="#000000" font-family="sans-serif" font-size="11" lengthAdjust="spacingAndGlyphs" textLength="49" x="393.5" y="234.1348">a: double</text><rect fill="none" height="6" style="stroke: #C82930; stroke-width: 1.0;" width="6" x="381.5" y="241.4326"/><text fill="#000000" font-family="sans-serif" font-size="11" lengthAdjust="spacingAndGlyphs" textLength="50" x="393.5" y="247.0898">b: double</text><line style="stroke: #A80036; stroke-width: 1.5;" x1="374.5" x2="607.5" y1="253.4102" y2="253.4102"/><ellipse cx="384.5" cy="265.3877" fill="#84BE84" rx="3" ry="3" style="stroke: #038048; stroke-width: 1.0;"/><text fill="#000000" font-family="sans-serif" font-size="11" lengthAdjust="spacingAndGlyphs" textLength="209" x="393.5" y="268.0449">Quader(a: double, b: double, h: double)</text><ellipse cx="384.5" cy="278.3428" fill="#84BE84" rx="3" ry="3" style="stroke: #038048; stroke-width: 1.0;"/><text fill="#000000" font-family="sans-serif" font-size="11" lengthAdjust="spacingAndGlyphs" textLength="122" x="393.5" y="281">grundflaeche(): double</text><!--class Zylinder--><rect fill="#FEFECE" filter="url(#f1p2kvmyudp1jd)" height="86.8652" id="Zylinder" style="stroke: #A80036; stroke-width: 1.5;" width="182" x="644" y="194"/><ellipse cx="707.75" cy="210" fill="#ADD1B2" rx="11" ry="11" style="stroke: #A80036; stroke-width: 1.0;"/><path d="M710.7231,215.6431 Q710.1421,215.9419 709.5029,216.0913 Q708.8638,216.2407 708.1582,216.2407 Q705.6514,216.2407 704.3315,214.5889 Q703.0117,212.937 703.0117,209.8159 Q703.0117,206.6865 704.3315,205.0347 Q705.6514,203.3828 708.1582,203.3828 Q708.8638,203.3828 709.5112,203.5322 Q710.1587,203.6816 710.7231,203.9805 L710.7231,206.7031 Q710.0923,206.1221 709.4988,205.8523 Q708.9053,205.5825 708.2744,205.5825 Q706.9297,205.5825 706.2449,206.6492 Q705.5601,207.7158 705.5601,209.8159 Q705.5601,211.9077 706.2449,212.9744 Q706.9297,214.041 708.2744,214.041 Q708.9053,214.041 709.4988,213.7712 Q710.0923,213.5015 710.7231,212.9204 Z "/><text fill="#000000" font-family="sans-serif" font-size="12" lengthAdjust="spacingAndGlyphs" textLength="46" x="728.25" y="214.5352">Zylinder</text><line style="stroke: #A80036; stroke-width: 1.5;" x1="645" x2="825" y1="226" y2="226"/><rect fill="none" height="6" style="stroke: #C82930; stroke-width: 1.0;" width="6" x="652" y="234.9775"/><text fill="#000000" font-family="sans-serif" font-size="11" lengthAdjust="spacingAndGlyphs" textLength="48" x="664" y="240.6348">r: double</text><line style="stroke: #A80036; stroke-width: 1.5;" x1="645" x2="825" y1="246.9551" y2="246.9551"/><ellipse cx="655" cy="258.9326" fill="#84BE84" rx="3" ry="3" style="stroke: #038048; stroke-width: 1.0;"/><text fill="#000000" font-family="sans-serif" font-size="11" lengthAdjust="spacingAndGlyphs" textLength="156" x="664" y="261.5898">Zylinder(r: double, h: double)</text><ellipse cx="655" cy="271.8877" fill="#84BE84" rx="3" ry="3" style="stroke: #038048; stroke-width: 1.0;"/><text fill="#000000" font-family="sans-serif" font-size="11" lengthAdjust="spacingAndGlyphs" textLength="122" x="664" y="274.5449">grundflaeche(): double</text><!--class ZylindrischesRohr--><rect fill="#FEFECE" filter="url(#f1p2kvmyudp1jd)" height="99.8203" id="ZylindrischesRohr" style="stroke: #A80036; stroke-width: 1.5;" width="304" x="861" y="187.5"/><ellipse cx="958.25" cy="203.5" fill="#ADD1B2" rx="11" ry="11" style="stroke: #A80036; stroke-width: 1.0;"/><path d="M961.2231,209.1431 Q960.6421,209.4419 960.0029,209.5913 Q959.3638,209.7407 958.6582,209.7407 Q956.1514,209.7407 954.8315,208.0889 Q953.5117,206.437 953.5117,203.3159 Q953.5117,200.1865 954.8315,198.5347 Q956.1514,196.8828 958.6582,196.8828 Q959.3638,196.8828 960.0112,197.0322 Q960.6587,197.1816 961.2231,197.4805 L961.2231,200.2031 Q960.5923,199.6221 959.9988,199.3523 Q959.4053,199.0825 958.7744,199.0825 Q957.4297,199.0825 956.7449,200.1492 Q956.0601,201.2158 956.0601,203.3159 Q956.0601,205.4077 956.7449,206.4744 Q957.4297,207.541 958.7744,207.541 Q959.4053,207.541 959.9988,207.2712 Q960.5923,207.0015 961.2231,206.4204 Z "/><text fill="#000000" font-family="sans-serif" font-size="12" lengthAdjust="spacingAndGlyphs" textLength="101" x="978.75" y="208.0352">ZylindrischesRohr</text><line style="stroke: #A80036; stroke-width: 1.5;" x1="862" x2="1164" y1="219.5" y2="219.5"/><rect fill="none" height="6" style="stroke: #C82930; stroke-width: 1.0;" width="6" x="869" y="228.4775"/><text fill="#000000" font-family="sans-serif" font-size="11" lengthAdjust="spacingAndGlyphs" textLength="55" x="881" y="234.1348">r1: double</text><rect fill="none" height="6" style="stroke: #C82930; stroke-width: 1.0;" width="6" x="869" y="241.4326"/><text fill="#000000" font-family="sans-serif" font-size="11" lengthAdjust="spacingAndGlyphs" textLength="55" x="881" y="247.0898">r2: double</text><line style="stroke: #A80036; stroke-width: 1.5;" x1="862" x2="1164" y1="253.4102" y2="253.4102"/><ellipse cx="872" cy="265.3877" fill="#84BE84" rx="3" ry="3" style="stroke: #038048; stroke-width: 1.0;"/><text fill="#000000" font-family="sans-serif" font-size="11" lengthAdjust="spacingAndGlyphs" textLength="278" x="881" y="268.0449">ZylindrischesRohr(r1: double, r2: double, h: double)</text><ellipse cx="872" cy="278.3428" fill="#84BE84" rx="3" ry="3" style="stroke: #038048; stroke-width: 1.0;"/><text fill="#000000" font-family="sans-serif" font-size="11" lengthAdjust="spacingAndGlyphs" textLength="122" x="881" y="281">grundflaeche(): double</text><!--link Volumen to DreiecksPrisma--><path d="M496.7264,110.113 C441.4165,131.8105 374.7431,157.9658 316.2386,180.9166 " fill="none" id="Volumen-DreiecksPrisma" style="stroke: #A80036; stroke-width: 1.0;"/><polygon fill="none" points="494.2264,103.5744,515.4014,102.787,499.3392,116.6075,494.2264,103.5744" style="stroke: #A80036; stroke-width: 1.0;"/><!--link Volumen to Quader--><path d="M561.4441,137.608 C549.6051,154.396 537.2798,171.8738 526.3105,187.4286 " fill="none" id="Volumen-Quader" style="stroke: #A80036; stroke-width: 1.0;"/><polygon fill="none" points="555.8057,133.4571,573.0526,121.1467,567.247,141.5255,555.8057,133.4571" style="stroke: #A80036; stroke-width: 1.0;"/><!--link Volumen to Zylinder--><path d="M664.5832,137.6467 C678.087,156.7955 692.2217,176.839 704.2536,193.9007 " fill="none" id="Volumen-Zylinder" style="stroke: #A80036; stroke-width: 1.0;"/><polygon fill="none" points="658.753,141.5255,652.9474,121.1467,670.1943,133.4571,658.753,141.5255" style="stroke: #A80036; stroke-width: 1.0;"/><!--link Volumen to ZylindrischesRohr--><path d="M729.2236,114.7667 C782.0566,137.617 844.4102,164.5849 897.193,187.4135 " fill="none" id="Volumen-ZylindrischesRohr" style="stroke: #A80036; stroke-width: 1.0;"/><polygon fill="none" points="726.1731,121.0741,710.5952,106.7099,731.7306,108.2244,726.1731,121.0741" style="stroke: #A80036; stroke-width: 1.0;"/><!--
@startuml formen.svg

abstract class Volumen {
	-h: double
	+Volumen(h: double)

	+abstract grundflaeche(): double
	+double volumen()
}

class DreiecksPrisma extends Volumen {
	-a: double
	-b: double
	-c: double
	+DreiecksPrisma(a: double, b: double, c: double, h: double)
	+grundflaeche(): double
}

class Quader extends Volumen {
	-a: double
	-b: double
	+Quader(a: double, b: double, h: double)
	+grundflaeche(): double
}

class Zylinder extends Volumen {
	-r: double
	+Zylinder(r: double, h: double)
	+grundflaeche(): double
}

class ZylindrischesRohr extends Volumen {
	-r1: double
	-r2: double
	+ZylindrischesRohr(r1: double, r2: double, h: double)
	+grundflaeche(): double
}

@enduml

PlantUML version 1.2018.07(Mon Jun 11 19:29:06 CEST 2018)
(GPL source distribution)
Java Runtime: Java(TM) SE Runtime Environment
JVM: Java HotSpot(TM) 64-Bit Server VM
Java Version: 1.8.0_144-b01
Operating System: Mac OS X
OS Version: 10.13.4
Default Encoding: UTF-8
Language: en
Country: US
--></g></svg>